<?xml version="1.0" encoding="UTF-8"?>
<svg width="300" height="300" viewBox="0 0 300 300" xmlns="http://www.w3.org/2000/svg">
    <style>
     @media (prefers-color-scheme: dark) {
        #Rectangle{fill:none}
     }
    </style>
    <path id="Rectangle" fill="#c600ff" fill-rule="evenodd" stroke="none" d="M 0 300 L 300 300 L 300 0 L 0 0 Z"/>
    <path id="D" fill="#ffffff" fill-rule="evenodd" stroke="none" d="M 40 264.537994 L 40 34.537994 L 110.172417 34.537994 C 133.942657 34.537994 155.120605 36.951752 173.706909 41.779388 C 192.293198 46.606995 207.971207 53.848297 220.741394 63.503525 C 233.511566 73.158737 243.247101 85.17012 249.948288 99.537994 C 256.649445 113.905884 260 130.514923 260 149.365585 C 260 168.216248 256.649445 184.825287 249.948288 199.193176 C 243.247101 213.561066 233.511566 225.572433 220.741394 235.227646 C 207.971207 244.882874 192.293198 252.181641 173.706909 257.124207 C 155.120605 262.066742 133.942657 264.537994 110.172417 264.537994 Z M 120.793098 199.020752 C 139.758728 199.020752 154.425247 194.940338 164.793106 186.779373 C 175.16098 178.618408 180.344833 166.147263 180.344833 149.365585 C 180.344833 132.583893 175.16098 120.170227 164.793106 112.124207 C 154.425247 104.078186 139.758728 100.055252 120.793098 100.055252 Z"/>
</svg>