<?xml version="1.0" encoding="UTF-8"?>
<!-- Generated by Pixelmator Pro 3.6.17 -->
<svg width="2299" height="936" viewBox="0 0 2299 936" xmlns="http://www.w3.org/2000/svg">
    <path id="Dylo-copy" fill="#c600ff" fill-rule="evenodd" stroke="none" d="M 1440.451172 651.600586 L 1440.451172 220.308044 C 1458.787109 191.274536 1480.054077 164.659058 1504.251831 140.461121 C 1546.312256 98.401367 1595.676514 65.196228 1652.346436 40.845825 C 1709.016968 16.495422 1769.228638 4.320496 1832.982666 4.320496 C 1896.736816 4.320496 1956.947266 16.495422 2013.617798 40.845825 C 2070.28833 65.196228 2119.652588 98.401367 2161.712402 140.461121 C 2203.772705 182.52124 2236.977295 231.885498 2261.327637 288.555786 C 2285.678223 345.226318 2297.853027 405.437378 2297.853027 469.191437 C 2297.853027 532.945496 2285.678223 593.15686 2261.327637 649.827148 C 2236.977295 706.497375 2203.772705 755.861938 2161.712402 797.921753 C 2119.652588 839.981812 2070.28833 873.186646 2013.617798 897.537048 C 1956.947266 921.887512 1896.736816 934.062683 1832.982666 934.062683 C 1782.057495 934.062683 1733.392456 926.294373 1686.986938 910.757751 L 1686.986938 651.600586 L 1440.451172 651.600586 Z M 23.303776 25.571655 L 23.303776 911.483154 L 269.021301 911.483154 C 352.25592 911.483154 426.413116 901.964417 491.495544 882.926941 C 556.577698 863.88916 611.47644 835.775757 656.192688 798.585815 C 700.908997 761.396118 734.99939 715.130798 758.464478 659.788696 C 781.929321 604.446533 793.661743 540.472107 793.661743 467.863373 C 793.661743 395.254639 781.929321 331.279907 758.464478 275.937744 C 734.99939 220.595886 700.908997 174.330627 656.192688 137.140625 C 611.47644 99.950989 556.577698 72.058777 491.495544 53.463806 C 426.413116 34.868835 352.25592 25.571655 269.021301 25.571655 L 23.303776 25.571655 Z M 590.111938 63.503418 C 581.123108 58.986694 565.93927 52.519531 550.671936 46.583557 L 539.225952 25.571655 L 854.010193 25.571655 L 956.281982 212.848328 L 1057.225464 25.571655 L 1372.009644 25.571655 L 1097.071533 530.288696 L 1097.071533 911.483154 L 814.164063 911.483154 L 814.164063 545.055054 C 816.477356 522.557373 817.844055 494.637573 817.844055 467.554718 C 817.844055 430.896332 815.238098 391.21521 811.375732 369.068054 C 807.818481 348.667419 799.244568 315.045044 792.322754 294.351074 C 785.401489 273.657166 772.960632 244.503052 764.67749 229.56488 C 756.393799 214.626709 741.689697 192.062317 732.001282 179.421997 C 722.312805 166.781738 703.347534 145.984802 689.855957 133.206787 C 676.364868 120.428772 654.044312 102.3526 640.254822 93.037476 C 626.465332 83.722961 603.901428 70.432312 590.111938 63.503418 Z M 1395.113281 37.596985 L 1401.660645 25.571655 L 1416.316284 25.571655 L 1416.316284 679.047668 L 1660.705322 679.047668 L 1660.705322 911.483154 L 1122.879761 911.483154 L 1122.879761 537.503967 L 1248.691406 306.477234 C 1317.887817 179.412354 1383.777344 58.416382 1395.113281 37.596985 Z M 460.282562 611.973389 C 423.97818 643.407654 372.621765 659.124634 306.210968 659.124634 L 306.210968 277.930176 C 372.621765 277.930176 423.97818 293.425598 460.282562 324.417358 C 496.586914 355.408752 514.739136 403.223694 514.739136 467.863373 C 514.739136 532.502991 496.586914 580.539185 460.282562 611.973389 Z M 1647.034058 469.191437 C 1647.034058 494.870239 1651.903931 518.998779 1661.644165 541.578613 C 1671.383911 564.158203 1684.666016 583.859741 1701.490356 600.683472 C 1718.314209 617.507568 1738.015625 630.789673 1760.594971 640.529663 C 1783.174805 650.269897 1807.303589 655.140076 1832.982666 655.140076 C 1858.660645 655.140076 1882.789429 650.269897 1905.369263 640.529663 C 1927.949097 630.789673 1947.650635 617.507568 1964.474487 600.683472 C 1981.298218 583.859741 1994.580322 564.158203 2004.320557 541.578613 C 2014.060913 518.998779 2018.930786 494.870239 2018.930786 469.191437 C 2018.930786 443.512634 2014.060913 419.384094 2004.320557 396.80426 C 1994.580322 374.224976 1981.298218 354.523499 1964.474487 337.699402 C 1947.650635 320.875305 1927.949097 307.593567 1905.369263 297.853271 C 1882.789429 288.112976 1858.660645 283.243103 1832.982666 283.243103 C 1807.303589 283.243103 1783.174805 288.112976 1760.594971 297.853271 C 1738.015625 307.593567 1718.314209 320.875305 1701.490356 337.699402 C 1684.666016 354.523499 1671.383911 374.224976 1661.644165 396.80426 C 1651.903931 419.384094 1647.034058 443.512634 1647.034058 469.191437 Z"/>
</svg>
