<?xml version="1.0" encoding="UTF-8"?>
<!-- Generated by Pixelmator Pro 3.6.15 -->
<svg width="2160" height="900" viewBox="0 0 2160 900" xmlns="http://www.w3.org/2000/svg">
    <path id="Dylotext" fill="#c600ff" fill-rule="evenodd" stroke="none" d="M 1303.735107 449.672852 C 1303.735107 390.990051 1314.94165 335.56842 1337.355591 283.405701 C 1359.768555 231.243225 1390.332397 185.805603 1429.046631 147.091125 C 1467.761353 108.376953 1513.198975 77.81311 1565.361084 55.399597 C 1617.523804 32.986145 1672.946045 21.779663 1731.628906 21.779663 C 1790.311646 21.779663 1845.732788 32.986145 1897.895508 55.399597 C 1950.058228 77.81311 1995.49585 108.376953 2034.210083 147.091125 C 2072.924805 185.805603 2103.488037 231.243225 2125.901611 283.405701 C 2148.314941 335.56842 2159.521484 390.990051 2159.521484 449.672852 C 2159.521484 508.355652 2148.314941 563.777588 2125.901611 615.940063 C 2103.488037 668.102478 2072.924805 713.540405 2034.210083 752.254578 C 1995.49585 790.969055 1950.058228 821.532593 1897.895508 843.946106 C 1845.732788 866.359558 1790.311646 877.566284 1731.628906 877.566284 C 1672.946045 877.566284 1617.523804 866.359558 1565.361084 843.946106 C 1551.938354 838.178467 1538.960938 831.871216 1526.428711 825.024231 L 1526.428711 626.422974 L 1342.011108 626.422974 C 1340.421997 622.959351 1338.870239 619.465088 1337.355591 615.940063 C 1314.94165 563.777588 1303.735107 508.355652 1303.735107 449.672852 Z M 0.514069 41.340393 L 0.514069 856.782837 L 226.686188 856.782837 C 303.299988 856.782837 371.558411 848.02124 431.463898 830.498108 C 491.369141 812.97467 541.901001 787.097534 583.060364 752.865784 C 624.219727 718.634338 655.59845 676.049194 677.197083 625.109131 C 698.79541 574.169189 709.594543 515.283569 709.594543 448.450409 C 709.594543 381.617249 698.79541 322.731384 677.197083 271.791382 C 655.59845 220.851624 624.219727 178.266479 583.060364 144.034729 C 541.901001 109.803284 491.369141 84.129761 431.463898 67.013916 C 371.558411 49.898071 303.299988 41.340393 226.686188 41.340393 L 0.514069 41.340393 Z M 597.631836 127.193542 C 566.030273 101.119202 529.234314 79.750183 487.243591 63.086487 L 475.397675 41.340393 L 765.142639 41.340393 L 859.279297 213.720337 L 952.193298 41.340393 L 1241.938232 41.340393 L 988.869873 505.910217 L 988.869873 856.782837 L 728.466003 856.782837 L 728.466003 515.52771 C 730.969543 494.074137 732.221313 471.706645 732.221313 448.425232 C 732.221313 377.900208 720.73468 315.761414 697.761353 262.007507 C 674.78772 208.253845 641.411438 163.316223 597.631836 127.193542 Z M 1011.313599 506.536713 L 1269.997803 41.340393 L 1282.720581 41.340393 L 1282.720581 642.836243 L 1507.669922 642.836243 L 1507.669922 856.782837 L 1011.313599 856.782837 L 1011.313599 506.536713 Z M 402.733734 581.097351 C 369.317169 610.031189 322.045868 624.497925 260.917633 624.497925 L 260.917633 273.625305 C 322.045868 273.625305 369.317169 287.888184 402.733734 316.414673 C 436.150299 344.940918 452.858582 388.952484 452.858582 448.450409 C 452.858582 507.948334 436.150299 552.163574 402.733734 581.097351 Z M 1560.471313 449.672852 C 1560.471313 473.309052 1564.953857 495.518341 1573.919312 516.302063 C 1582.884277 537.085571 1595.109863 555.21991 1610.595947 570.705444 C 1626.081543 586.191284 1644.215942 598.41687 1664.999023 607.38208 C 1685.782837 616.347595 1707.992432 620.830322 1731.628906 620.830322 C 1755.264282 620.830322 1777.473755 616.347595 1798.257568 607.38208 C 1819.04126 598.41687 1837.175659 586.191284 1852.661255 570.705444 C 1868.146729 555.21991 1880.372314 537.085571 1889.337769 516.302063 C 1898.303345 495.518341 1902.785767 473.309052 1902.785767 449.672852 C 1902.785767 426.036652 1898.303345 403.827362 1889.337769 383.04364 C 1880.372314 362.260437 1868.146729 344.126038 1852.661255 328.640198 C 1837.175659 313.154358 1819.04126 300.929138 1798.257568 291.963623 C 1777.473755 282.998108 1755.264282 278.515625 1731.628906 278.515625 C 1707.992432 278.515625 1685.782837 282.998108 1664.999023 291.963623 C 1644.215942 300.929138 1626.081543 313.154358 1610.595947 328.640198 C 1595.109863 344.126038 1582.884277 362.260437 1573.919312 383.04364 C 1564.953857 403.827362 1560.471313 426.036652 1560.471313 449.672852 Z"/>
</svg>
