<?xml version="1.0" encoding="UTF-8"?>
<!-- Generated by Pixelmator Pro 3.6.15 -->
<svg width="2160" height="855" viewBox="0 0 2160 855" xmlns="http://www.w3.org/2000/svg">
    <path id="Dylotext" fill="#c600ff" fill-rule="evenodd" stroke="none" d="M 1302.810547 427.344391 C 1302.810547 368.702545 1314.009155 313.319519 1336.407593 261.193176 C 1358.80481 209.067139 1389.347412 163.661194 1428.034546 124.973694 C 1466.72229 86.286499 1512.128296 55.744019 1564.254028 33.34613 C 1616.380371 10.948303 1671.763916 -0.250366 1730.405762 -0.250366 C 1789.047607 -0.250366 1844.430054 10.948303 1896.556396 33.34613 C 1948.682739 55.744019 1994.088745 86.286499 2032.775879 124.973694 C 2071.463623 163.661194 2102.005615 209.067139 2124.403564 261.193176 C 2146.80127 313.319519 2158 368.702545 2158 427.344391 C 2158 485.986267 2146.80127 541.369507 2124.403564 593.495605 C 2102.005615 645.621704 2071.463623 691.027893 2032.775879 729.715088 C 1994.088745 768.402527 1948.682739 798.944824 1896.556396 821.342651 C 1844.430054 843.740479 1789.047607 854.939453 1730.405762 854.939453 C 1671.763916 854.939453 1616.380371 843.740479 1564.254028 821.342651 C 1550.358521 815.371887 1536.940552 808.822388 1524 801.694092 L 1524 603.516235 L 1340.85144 603.516235 C 1339.336182 600.204102 1337.854858 596.863892 1336.407593 593.495605 C 1314.009155 541.369507 1302.810547 485.986267 1302.810547 427.344391 Z M 0.498367 19.296753 L 0.498367 834.170471 L 226.512756 834.170471 C 303.07312 834.170471 371.283905 825.414978 431.147644 807.904053 C 491.011108 790.392822 541.507751 764.533691 582.638367 730.325867 C 623.769043 696.118286 655.125854 653.562866 676.709412 602.658325 C 698.292664 551.753906 709.08429 492.909332 709.08429 426.122803 C 709.08429 359.336273 698.292664 300.491455 676.709412 249.586975 C 655.125854 198.6828 623.769043 156.127319 582.638367 121.919434 C 541.507751 87.711914 491.011108 62.056274 431.147644 44.952332 C 371.283905 27.84845 303.07312 19.296753 226.512756 19.296753 L 0.498367 19.296753 Z M 597.199646 105.090027 C 565.620117 79.033813 528.849792 57.679749 486.888397 41.027649 L 475.050781 19.296753 L 764.593628 19.296753 L 858.664673 191.556458 L 951.513855 19.296753 L 1241.056763 19.296753 L 988.164856 483.542542 L 988.164856 834.170471 L 727.942627 834.170471 L 727.942627 493.153107 C 730.444397 471.714539 731.695313 449.362732 731.695313 426.097626 C 731.695313 355.621796 720.216614 293.526367 697.259338 239.809937 C 674.301758 186.09375 640.94873 141.1875 597.199646 105.090027 Z M 1010.592896 484.16861 L 1269.096558 19.296753 L 1281.810547 19.296753 L 1281.810547 620.373047 L 1506.603027 620.373047 L 1506.603027 834.170471 L 1010.592896 834.170471 L 1010.592896 484.16861 Z M 402.4375 558.677246 C 369.04425 587.590881 321.805908 602.047546 260.720306 602.047546 L 260.720306 251.419617 C 321.805908 251.419617 369.04425 265.672546 402.4375 294.179138 C 435.83078 322.685547 452.527405 366.666382 452.527405 426.122803 C 452.527405 485.579254 435.83078 529.763611 402.4375 558.677246 Z M 1559.367676 427.344391 C 1559.367676 450.964111 1563.847046 473.157898 1572.806274 493.927155 C 1581.765015 514.696106 1593.981934 532.817871 1609.457275 548.292603 C 1624.932129 563.7677 1643.053833 575.98468 1663.82251 584.943604 C 1684.591797 593.902893 1706.785767 598.382507 1730.405762 598.382507 C 1754.024658 598.382507 1776.21875 593.902893 1796.988037 584.943604 C 1817.757202 575.98468 1835.879028 563.7677 1851.35376 548.292603 C 1866.828491 532.817871 1879.045532 514.696106 1888.004761 493.927155 C 1896.963989 473.157898 1901.443359 450.964111 1901.443359 427.344391 C 1901.443359 403.72467 1896.963989 381.530884 1888.004761 360.761658 C 1879.045532 339.992981 1866.828491 321.871216 1851.35376 306.396179 C 1835.879028 290.921143 1817.757202 278.704407 1796.988037 269.745178 C 1776.21875 260.785889 1754.024658 256.30658 1730.405762 256.30658 C 1706.785767 256.30658 1684.591797 260.785889 1663.82251 269.745178 C 1643.053833 278.704407 1624.932129 290.921143 1609.457275 306.396179 C 1593.981934 321.871216 1581.765015 339.992981 1572.806274 360.761658 C 1563.847046 381.530884 1559.367676 403.72467 1559.367676 427.344391 Z"/>
</svg>
